PathFileType	4	(X/Y/Z)	27_2_99_p1_0-288_filt_butterworth.trc
DataRate	CameraRate	NumFrames	NumMarkers	Units	OrigDataRate	OrigDataStartFrame	OrigNumFrames
53.0	53.0	6	27	m	53.0	108	288
Frame#	Time	RHip			RKnee			RAnkle			RBigToe			RSmallToe			RHeel			LHip			LKnee			LAnkle			LBigToe			LSmallToe			LHeel			Neck			Head			Nose			RShoulder			RElbow			RWrist			RThumb			RIndex			RPinky			LShoulder			LElbow			LWrist			LThumb			LIndex			LPinky			
		X1	Y1	Z1	X2	Y2	Z2	X3	Y3	Z3	X4	Y4	Z4	X5	Y5	Z5	X6	Y6	Z6	X7	Y7	Z7	X8	Y8	Z8	X9	Y9	Z9	X10	Y10	Z10	X11	Y11	Z11	X12	Y12	Z12	X13	Y13	Z13	X14	Y14	Z14	X15	Y15	Z15	X16	Y16	Z16	X17	Y17	Z17	X18	Y18	Z18	X19	Y19	Z19	X20	Y20	Z20	X21	Y21	Z21	X22	Y22	Z22	X23	Y23	Z23	X24	Y24	Z24	X25	Y25	Z25	X26	Y26	Z26	X27	Y27	Z27	
108	2.037735849056604	0.1377075142484745	0.6696281962626197	1.0554252083227715	0.14119757763570434	0.7046718180405342	1.44855253286295	0.1573751162836201	0.8027646135971405	1.8410492672493821	0.12474593759028779	0.5964588390815357	1.8478303639406177	0.1804410723760476	0.6018530290053556	1.8377547488498704	0.1597238457608265	0.9029121828324187	1.9120910960435462	-0.06277504262306255	0.6526439220692406	1.0468314993234913	-0.05226765739388124	0.7416561471689136	1.4610555033316395	-0.03238691001703392	0.8144239153571919	1.855263070197572	-0.026676621658756415	0.5816975320705784	1.8234281306126094	-0.07413943939774867	0.6211595077488413	1.8330491034738858	-0.011158921233655188	0.867618270956081	1.894098786172962	0.029466132743431607	0.5795278734395045	0.4984703466870539	0.01965197029844465	0.5241790377050408	0.2515627014070361	0.014254106847373549	0.4361606868723594	0.3738679398919098	0.16287052123907375	0.5947086290429736	0.5842465367589784	0.23582175086510712	0.6715442297885761	0.8388644187918021	0.24336678947343607	0.609825389802888	1.0523307917647884	0.2065891366410931	0.5680941380975536	1.1802988141608797	0.2289289535963926	0.5569377281903477	1.20527081699349	0.24147991660200607	0.6185670926425781	1.1988934120692036	-0.11528359320649353	0.6229511855511536	0.5952843190181245	-0.16283838794713731	0.628412695868936	0.8160582364270592	-0.16243465604495733	0.619079664382055	1.0526304345704052	-0.13853226297229204	0.5956940245316301	1.1587903036483174	-0.14913852696020752	0.6024403636112929	1.1819193084991704	-0.17701346130708334	0.6468214185297911	1.1796827518772162
109	2.056603773584906	0.13815245783633726	0.6696927678845833	1.0555050905098193	0.14128321240252914	0.7045833870418824	1.4485904912395133	0.15671969363601995	0.7963893529172368	1.8362609037909934	0.12463857811361032	0.5964074601740081	1.8477351880162924	0.18011227071280408	0.601430412683646	1.8346293124457327	0.1599525425032225	0.9037873842297838	1.9153319494733125	-0.06278787740019515	0.6525992521090935	1.0466697779523009	-0.05230024413530806	0.7416669549776438	1.4610968275889626	-0.033589853416516435	0.8140026145853368	1.855074295538257	-0.02652359366017264	0.5818820875964607	1.8241372212877838	-0.07415362326823276	0.6210749391089864	1.8329813765300411	-0.011299770014365329	0.8688935740963596	1.8944569747407571	0.02947041019776958	0.5795209909356804	0.49871886983841196	0.019686104929107568	0.5240755059962594	0.25154733930263284	0.014357320482780005	0.4362683752912653	0.3740726246498398	0.16290514405050843	0.5948001808556099	0.5848094329949409	0.2359619403324345	0.6716139972202197	0.8395218553244856	0.2432715872843349	0.609917169065523	1.0523185044751866	0.2065509781621716	0.5682894095223612	1.18029996029336	0.22996572645568636	0.5570327087032192	1.2062693409276586	0.23986793477653226	0.618355167664385	1.1987854956266264	-0.11422152365534456	0.6266193241032096	0.5958481269559438	-0.16299274297550986	0.6287786367063534	0.8160261078670448	-0.1625265154069391	0.6193939749254616	1.0524867138438572	-0.13759358683540746	0.5921411835887953	1.1578291356197994	-0.1503492589701498	0.5979789253537131	1.1841598202241248	-0.17852677403012274	0.6458709087720479	1.181397832681258
110	2.0754716981132075	0.13807801231656258	0.6696271743870106	1.055410142906228	0.14139826926984003	0.7042218652829813	1.4497057520737626	0.15705586759813434	0.7915181891526015	1.8326112083983628	0.12455063962279153	0.596305246278515	1.8477564171850893	0.17956400284595278	0.6014008800028603	1.8339255253581097	0.15937627568171187	0.9039397876353186	1.9182771195244719	-0.0628124568757501	0.6525875026239973	1.0465767820265923	-0.05230989535076391	0.7416362648343753	1.4611866358830183	-0.03392107029545023	0.8138935305634148	1.8550192560802163	-0.02642155613150369	0.5820359975075732	1.8245136358120546	-0.07416238525953985	0.6210513297802366	1.8329583605792417	-0.011348427437433356	0.8695817753391593	1.8945386889984928	0.029465233945143818	0.5795117935071726	0.4986481227587785	0.019692115002517722	0.524023531424941	0.2515141178626219	0.014415731657266319	0.43649162427422994	0.3742752963054955	0.1629287322859139	0.5948676518811316	0.58474816259119	0.23599903177019116	0.6714221990068814	0.8402983556352358	0.2432204307162938	0.6099533107751893	1.0522385746293166	0.20660040148024178	0.5684678651619542	1.1803032449004855	0.23099578230301648	0.5570421105633853	1.2071881187324536	0.23937150923054165	0.6182086736727739	1.1987228395136542	-0.1137855234249914	0.6278735794624963	0.5967918557519069	-0.16311347426381198	0.6289552145061837	0.8160223603309484	-0.16254056305236347	0.6194564179583338	1.0514494412680726	-0.13732966871366173	0.5910702173455701	1.157572383529179	-0.1514252789561122	0.5948050243553288	1.1843318875446833	-0.18030578066559527	0.6461465152093031	1.181920532329353
111	2.0943396226415096	0.13794904748199083	0.6695314574034593	1.0553380560216996	0.14147078441571098	0.7038813127620953	1.4507342008692123	0.15749103174659687	0.7899888852609306	1.831402685556787	0.12446274447639546	0.59628488482613	1.847947637962454	0.17830369612759264	0.6017001405977227	1.8355980785000556	0.15826341273632222	0.903302514247776	1.9185959177876333	-0.06276660240573208	0.6527902571092296	1.04700875166457	-0.052312333513078714	0.7415693937753817	1.461249485554857	-0.03380475655296063	0.8139580482585733	1.855027238950714	-0.026394068696823078	0.5820579960333214	1.8245498267250861	-0.07415996595758981	0.6210868944387253	1.832970958894335	-0.01133897189486738	0.869418221913993	1.8944315978809159	0.0294472370888818	0.5795015464546196	0.49855698085114303	0.019652526925639104	0.5241472522015731	0.2514727139479596	0.014479414304524351	0.43656956202612085	0.3753140804558561	0.16303937675970454	0.5951521197595868	0.5846368681129435	0.235987109229677	0.6711448767827226	0.8410984109845838	0.24323643193957406	0.6098897932203543	1.0521823737058325	0.20664961393829984	0.5685353361017487	1.1802857244818596	0.2315232795486216	0.5568249296555173	1.2070667027913216	0.23948518784900544	0.6181790034600196	1.19872888152836	-0.11378001197441916	0.6276543923863834	0.5973670378472599	-0.16302087954570976	0.628731274815329	0.816444398116905	-0.16250896553758237	0.619358766741514	1.0498884578894478	-0.13740761105492566	0.5912706800436005	1.1576739291873184	-0.15192792107654263	0.5938754653051329	1.1835564779323398	-0.1802011529019627	0.6464490018983642	1.1818545896830412
112	2.1132075471698117	0.13789563828458498	0.669451093063275	1.0553183106859023	0.14148695447131043	0.7037320348525689	1.4510655403471104	0.15764620885110375	0.7903630940190693	1.831594075126389	0.12437839729801044	0.5963781227730505	1.8482091466790054	0.17734156587529648	0.6019718179727999	1.8373464859496282	0.15716031744788486	0.902585763511249	1.9164706157825933	-0.06255072952202811	0.6533064830892054	1.0483958497815657	-0.05231506175692577	0.7414739968252918	1.461254603272081	-0.033678247007231404	0.8140469642266246	1.8550423095313457	-0.02639765120619423	0.58203507792689	1.8244933114211035	-0.07414906568126396	0.6211333979442247	1.8329782272576063	-0.011323786788362015	0.8690234264794736	1.8942084310621736	0.029427427698764014	0.5794947561904659	0.49852988321074376	0.01960738943804159	0.5242025476123156	0.25142297840130245	0.014572093766558646	0.4356379315551115	0.37728943902603795	0.1631381595566091	0.5953998786465853	0.5846193260119641	0.23597295080158906	0.6709626848815227	0.8415191543932231	0.24331178458602062	0.6096964551212453	1.0524927433234537	0.2066615913771516	0.5683826654210111	1.1802438070973096	0.23152026114561858	0.5562939972209713	1.2052970228980642	0.23965199401627293	0.6181691042769012	1.1987794826074842	-0.11386908650580965	0.627264689497235	0.5974784521854566	-0.16278472727348287	0.6287441797544535	0.8176939429153114	-0.1625219286113283	0.6193003832239852	1.0493863459126755	-0.13750502920158783	0.5914873642952974	1.1577129050655224	-0.15202429052030986	0.5940449318651315	1.1830125470653046	-0.17799779501234186	0.6464000910416163	1.1816708674352592
113	2.1320754716981134	0.1378787759670451	0.6694054186128773	1.0553218201865406	0.14148034194745063	0.7037159659013219	1.4509895318878283	0.1576371124535764	0.7909010589143072	1.8319561302010408	0.12427779502034257	0.5963529409537311	1.848370152975878	0.177879061043251	0.6031150956248057	1.8384983933094927	0.15610136624252247	0.9022042387536904	1.9136831523934612	-0.0622286283479085	0.6539368150159854	1.0502997406453072	-0.05231652223426533	0.7413840793504406	1.4612251574197401	-0.03364805453038991	0.8140986196535773	1.8550430880337618	-0.026404416462255362	0.5820518180202231	1.8245001696739127	-0.07414027342184526	0.6211575187062359	1.8329680596949203	-0.011335837581655496	0.8686811146577527	1.8935305190382494	0.029424888502352923	0.5795007527521341	0.4985298732989565	0.019779073242524498	0.5230395973448105	0.25136360940418295	0.014513482076981053	0.43281518388410356	0.3795546813379329	0.162774311422259	0.594443000350866	0.584561302423929	0.23606201441514688	0.6709932705828419	0.8418094654510462	0.24339839091537782	0.60946698845484	1.0534930360679688	0.2066519797976824	0.568110858529458	1.1802059813395793	0.2314024248018865	0.5556409320230827	1.2024576926325414	0.23969160812036844	0.618130792887989	1.198860265480527	-0.1139199862231274	0.6271166533104036	0.5974300877869126	-0.16289034183156575	0.6303756052115985	0.819287016482097	-0.16261419850321346	0.6194992190423061	1.051358009493158	-0.13753391535728665	0.591422762940079	1.157555967654672	-0.1520144978703942	0.5942001341518405	1.1827991742077055	-0.1753788136714069	0.6461523940713444	1.1815438344501632
